<?xml version="1.0" encoding="UTF-8"?>
<svg id="Layer_1" xmlns="http://www.w3.org/2000/svg" version="1.1" viewBox="0 0 1920 438">
  <!-- Generator: Adobe Illustrator 29.2.1, SVG Export Plug-In . SVG Version: 2.1.0 Build 116)  -->
  <path d="M1465.43,111.34v215.29c0,48.4,39.24,87.64,87.64,87.64h260.29c48.4,0,87.64-39.24,87.64-87.64V111.34c0-48.4-39.24-87.64-87.64-87.64h-260.29c-48.4,0-87.64,39.24-87.64,87.64ZM1756.32,318.89h-146.2V119.07h146.2v199.82Z" style="fill: #24a846;"/>
  <g>
    <polygon points="1446.95 23.66 1247.92 414.26 1085.62 414.26 1284.56 23.66 1446.95 23.66" style="fill: #24a846;"/>
    <path d="M1205.57,219.01h-108.69c-32.95,0-63.12-18.48-78.08-47.84l-75.17-147.5h162.39l99.56,195.34Z" style="fill: #24a846;"/>
  </g>
  <path d="M724.78,318.88L875.25,23.63h-162.39l-134.05,263.19c-29.7,58.31,12.66,127.41,78.09,127.41h360.34v-95.35h-292.47Z" style="fill: #24a846;"/>
  <g>
    <path d="M379.78,23.66l-199.03,390.6H18.45L193.01,71.53c14.96-29.37,45.13-47.86,78.09-47.86h108.68Z" style="fill: #24a846;"/>
    <rect x="366.49" y="23.66" width="144.68" height="390.6" style="fill: #24a846;"/>
  </g>
</svg>